<svg xmlns="http://www.w3.org/2000/svg" viewBox="0 0 24 24" fill="none" stroke-width="1.5">
<path d="M15.2145 12.2408L21 2.5M15.2145 12.2408L13.6973 11.7126C11.9814 11.1152 10.1583 12.0086 9.17875 13.4827C8.09068 15.1201 7.5 15.5 5 17.2778L8 18.5L10.5 17L10.2407 19.3889L15.4813 21.5C17.4496 19.577 18.4282 17.9506 18.7571 15.7089C18.949 14.4018 18.0283 13.2205 16.7317 12.7691L15.2145 12.2408ZM5.16667 8.16667L6 6.5L6.83333 8.16667L8.5 9L6.83333 9.83333L6 11.5L5.16667 9.83333L3.5 9L5.16667 8.16667ZM10.8333 3.83333L11.5 2.5L12.1667 3.83333L13.5 4.5L12.1667 5.16667L11.5 6.5L10.8333 5.16667L9.5 4.5L10.8333 3.83333Z" stroke="currentColor" stroke-linecap="round" stroke-linejoin="round"/>
</svg>