<svg xmlns="http://www.w3.org/2000/svg" viewBox="0 0 24 24" fill="none" stroke-width="1.5">
<path fill-rule="evenodd" clip-rule="evenodd" d="M8.5 19.5C10.1575 19.5 11.5 18.1575 11.5 16.5C11.5 14.8425 10.1575 13.5 8.5 13.5C6.8425 13.5 5.5 14.8425 5.5 16.5C5.5 18.1575 6.8425 19.5 8.5 19.5Z" stroke="currentColor" stroke-linecap="square"/><path fill-rule="evenodd" clip-rule="evenodd" d="M15.5 10.5C17.1575 10.5 18.5 9.1575 18.5 7.5C18.5 5.8425 17.1575 4.5 15.5 4.5C13.8425 4.5 12.5 5.8425 12.5 7.5C12.5 9.1575 13.8425 10.5 15.5 10.5Z" stroke="currentColor" stroke-linecap="square"/><path d="M12.5 7.5H3.5" stroke="currentColor" stroke-linecap="square"/><path d="M20.5 16.5H11.5" stroke="currentColor" stroke-linecap="square"/><path d="M5.5 16.5H3.5" stroke="currentColor" stroke-linecap="square"/><path d="M20.5 7.5H18.5" stroke="currentColor" stroke-linecap="square"/>
</svg>