<svg width="512" height="512" viewBox="0 0 512 512" fill="none" xmlns="http://www.w3.org/2000/svg" xmlns:xlink="http://www.w3.org/1999/xlink"><rect id="r7" width="512" height="512" x="0" y="0" rx="128" fill="url(#r8)" stroke="#FFFFFF" stroke-width="0" stroke-opacity="100%" paint-order="stroke"></rect><rect width="512" height="512" x="0" y="0" fill="url(#r9)" rx="128" style="mix-blend-mode: overlay;"></rect><image href="/assets/noise.inline-CUYxl5Ss.png" width="512" height="512" x="0" y="0" clip-path="url(#clip)" opacity="25%"></image><clipPath id="clip"><use xlink:href="#r7"></use></clipPath><defs><radialGradient id="r8" cx="50%" cy="50%" r="100%" fx="50%" fy="50%" gradientUnits="objectBoundingBox"><stop stop-color="#f5af19"></stop><stop offset="1" stop-color="#f12711"></stop></radialGradient><radialGradient id="r9" cx="0" cy="0" r="1" gradientUnits="userSpaceOnUse" gradientTransform="translate(256) rotate(90) scale(512)"><stop stop-color="white"></stop><stop offset="1" stop-color="white" stop-opacity="0"></stop></radialGradient></defs>

<svg version="1.0" xmlns="http://www.w3.org/2000/svg" width="352" height="352" viewBox="0 0 600.000000 600.000000" preserveAspectRatio="xMidYMid meet" x="80" y="80" alignment-baseline="middle" style="color: rgb(255, 255, 255);">
<metadata>
Created by potrace 1.16, written by Peter Selinger 2001-2019
</metadata>
<g transform="translate(0.000000,600.000000) scale(0.100000,-0.100000)" fill="#000000" stroke="none">
<path d="M3678 5025 c-105 -27 -196 -81 -283 -169 -84 -85 -126 -152 -166
-266 -20 -58 -23 -88 -26 -290 -5 -312 -31 -418 -118 -499 -57 -52 -122 -72
-376 -111 -346 -54 -483 -87 -674 -162 -272 -107 -506 -268 -735 -505 -131
-135 -334 -394 -319 -407 2 -1 26 -18 53 -36 39 -26 50 -30 56 -19 5 8 42 59
83 114 336 450 733 719 1227 830 58 13 206 40 330 59 124 19 254 44 290 55
124 39 204 113 255 238 41 102 55 207 55 417 0 138 4 208 15 249 57 220 252
387 451 387 131 0 247 -66 430 -244 118 -114 133 -145 114 -232 -14 -63 -34
-99 -88 -156 -62 -66 -114 -94 -186 -101 -118 -11 -224 -91 -264 -199 -31 -83
-37 -162 -18 -238 25 -97 60 -151 172 -265 57 -58 122 -133 145 -166 134 -197
170 -404 104 -592 -14 -40 -28 -79 -31 -88 -4 -12 9 -25 45 -47 l51 -32 14 23
c8 12 27 58 42 102 36 105 45 285 20 397 -38 168 -124 314 -287 483 -59 60
-116 129 -128 153 -73 144 -7 313 133 342 51 10 72 9 209 -18 207 -41 319 -55
467 -55 142 -1 182 9 228 56 38 39 52 75 52 132 0 98 -34 136 -195 214 -198
97 -291 164 -461 336 -172 172 -292 261 -402 296 -86 27 -209 33 -284 14z
m908 -662 c60 -36 151 -86 202 -109 99 -47 123 -74 101 -115 -15 -29 -50 -39
-132 -39 -106 0 -419 39 -435 54 -2 3 11 21 29 41 53 58 87 114 105 177 10 32
19 58 20 58 1 0 51 -30 110 -67z"></path>
<path d="M4504 4289 c-14 -28 -22 -55 -17 -60 4 -4 25 -15 45 -24 l38 -15 25
50 c14 27 25 53 25 58 0 9 -63 42 -80 42 -5 0 -21 -23 -36 -51z"></path>
<path d="M3909 4695 c-15 -8 -34 -31 -44 -51 -60 -126 92 -239 196 -146 54 48
50 146 -9 192 -30 24 -104 26 -143 5z"></path>
<path d="M3305 3259 c-39 -61 -39 -65 1 -95 59 -45 122 -138 145 -216 18 -59
21 -87 17 -191 -3 -67 -8 -129 -12 -139 -6 -13 3 -19 50 -33 31 -9 60 -13 64
-8 15 16 30 116 30 201 -1 180 -57 330 -164 438 -34 33 -71 66 -83 73 -20 10
-25 8 -48 -30z"></path>
<path d="M2192 3140 c-224 -122 -420 -301 -523 -476 l-28 -48 49 -28 c27 -15
53 -28 57 -28 5 0 31 34 58 76 56 85 196 225 296 296 36 26 102 66 146 90 l81
43 -22 54 c-12 30 -26 56 -31 58 -6 1 -43 -15 -83 -37z"></path>
<path d="M1387 2506 c-20 -8 -47 -21 -60 -30 -88 -64 -100 -70 -146 -70 -28 0
-59 8 -79 19 l-33 20 -39 -40 c-21 -22 -39 -45 -40 -52 0 -19 80 -61 138 -71
87 -16 146 0 242 66 61 41 68 44 121 40 45 -3 65 -11 97 -36 120 -95 284 -98
382 -8 38 35 67 48 115 48 47 0 74 -11 120 -50 51 -43 105 -62 176 -62 77 0
136 18 187 58 56 44 80 54 129 54 36 0 55 -7 87 -32 22 -17 65 -42 93 -56 95
-46 230 -28 303 40 38 35 67 48 115 48 48 0 68 -9 131 -57 54 -41 99 -57 168
-57 70 -1 118 16 195 69 55 37 70 43 116 43 44 0 59 -5 99 -36 71 -54 127 -75
200 -75 71 0 123 18 176 60 53 42 75 51 125 51 51 0 68 -7 131 -55 24 -18 59
-38 79 -45 47 -15 132 -16 181 0 46 15 104 51 104 65 0 6 -18 29 -40 50 l-40
39 -32 -19 c-19 -11 -52 -19 -79 -19 -40 -1 -56 6 -115 47 -79 53 -117 67
-190 67 -64 0 -128 -22 -177 -61 -86 -69 -147 -73 -228 -13 -75 54 -126 74
-199 74 -74 0 -122 -18 -193 -73 -80 -61 -148 -58 -234 12 -102 81 -254 81
-356 0 -84 -68 -155 -73 -224 -17 -127 102 -270 105 -394 7 -79 -62 -144 -59
-237 10 -60 46 -105 61 -178 61 -64 0 -128 -22 -177 -61 -84 -68 -155 -73
-224 -17 -91 73 -202 97 -296 64z"></path>
<path d="M1365 2136 c-27 -12 -65 -36 -84 -51 -44 -38 -128 -47 -178 -20 l-34
19 -41 -41 c-22 -23 -39 -47 -36 -55 11 -28 101 -62 175 -66 61 -4 79 0 125
21 29 14 72 41 96 58 60 46 124 46 184 1 77 -58 137 -82 203 -82 82 0 125 14
187 60 95 72 152 73 239 5 121 -93 259 -88 397 16 60 46 124 46 184 0 75 -56
137 -81 203 -81 81 0 126 14 182 57 96 74 157 76 247 8 122 -94 256 -88 394
16 58 45 122 46 182 3 93 -65 121 -77 190 -82 83 -6 147 14 209 63 55 44 111
60 154 45 18 -6 57 -28 87 -49 70 -48 108 -61 185 -61 49 0 75 6 123 31 34 17
62 36 62 43 0 6 -18 30 -40 51 -40 39 -40 39 -69 22 -18 -10 -50 -17 -83 -17
-48 0 -61 5 -108 40 -77 58 -125 73 -212 69 -75 -4 -102 -16 -197 -84 -25 -19
-47 -25 -83 -25 -53 0 -74 8 -128 51 -78 63 -205 78 -295 35 -27 -13 -67 -37
-89 -55 -33 -27 -47 -31 -97 -31 -51 0 -63 4 -105 36 -80 61 -125 77 -213 72
-78 -3 -103 -13 -200 -83 -25 -19 -47 -25 -83 -25 -53 0 -74 8 -128 51 -47 38
-111 59 -178 59 -76 0 -120 -15 -188 -66 -53 -40 -64 -44 -116 -44 -50 0 -62
4 -104 36 -81 62 -126 77 -214 72 -79 -5 -104 -15 -199 -83 -25 -19 -47 -25
-83 -25 -53 0 -74 8 -128 51 -78 63 -204 78 -295 35z"></path>
<path d="M1433 1799 c-50 -6 -94 -28 -172 -84 -41 -30 -106 -33 -158 -8 l-35
16 -41 -41 c-47 -47 -44 -57 27 -95 33 -17 58 -22 126 -22 92 0 117 9 199 71
76 58 138 55 223 -11 108 -84 258 -86 359 -5 86 69 156 74 226 18 76 -60 111
-73 203 -73 92 0 115 8 196 70 77 59 140 56 226 -10 57 -44 116 -65 187 -65
64 0 119 22 194 77 43 32 58 37 102 37 34 0 61 -6 76 -17 116 -85 162 -102
254 -94 66 5 103 20 171 72 77 59 140 56 226 -10 111 -87 264 -86 366 1 74 62
151 67 220 12 95 -77 202 -97 303 -59 31 12 65 31 75 42 17 19 17 21 -23 61
l-42 42 -40 -19 c-62 -28 -125 -17 -192 32 -72 53 -110 67 -183 67 -70 -1
-128 -23 -200 -78 -41 -31 -55 -36 -100 -36 -40 0 -61 6 -87 25 -119 86 -186
105 -283 80 -34 -9 -73 -25 -89 -36 -85 -62 -100 -69 -148 -69 -40 0 -58 7
-111 43 -80 55 -115 67 -197 67 -75 0 -122 -18 -195 -74 -41 -31 -55 -36 -100
-36 -40 0 -61 6 -87 25 -82 59 -122 78 -177 84 -100 11 -152 -6 -262 -85 -30
-22 -43 -25 -90 -22 -46 3 -65 11 -110 45 -67 49 -112 65 -190 64 -69 0 -124
-21 -194 -75 -41 -31 -55 -36 -100 -36 -40 0 -61 6 -87 25 -109 78 -167 97
-266 84z"></path>
<path d="M3410 920 l0 -190 25 0 c22 0 25 4 25 33 0 33 23 77 40 77 6 0 26
-25 46 -55 33 -49 41 -55 71 -55 40 0 42 -5 -21 87 l-49 73 47 55 48 55 -34 0
c-27 0 -43 -10 -83 -50 -27 -27 -53 -50 -57 -50 -4 0 -8 47 -8 105 l0 105 -25
0 -25 0 0 -190z"></path>
<path d="M2400 911 l0 -181 78 0 c102 0 149 14 193 59 81 80 53 235 -50 278
-19 8 -77 17 -128 20 l-93 6 0 -182z m220 84 c56 -53 45 -156 -19 -189 -17 -9
-55 -16 -86 -16 l-55 0 0 121 0 122 66 -6 c54 -4 71 -10 94 -32z"></path>
<path d="M2780 905 c0 -137 24 -175 107 -175 21 0 48 7 60 15 19 13 22 13 27
0 3 -8 17 -15 31 -15 l25 0 0 136 0 135 -27 -3 -28 -3 -3 -90 c-3 -100 -17
-125 -73 -125 -45 0 -59 31 -59 132 l0 88 -30 0 -30 0 0 -95z"></path>
<path d="M3139 961 c-36 -36 -39 -43 -39 -96 0 -53 3 -60 39 -96 35 -35 43
-39 91 -39 36 0 63 7 87 21 35 22 35 22 15 42 -19 18 -22 18 -43 3 -51 -36
-123 -3 -135 61 -5 27 -1 37 24 63 33 32 64 38 107 18 22 -10 29 -9 43 6 16
16 16 18 -7 37 -17 14 -39 19 -83 19 -57 0 -63 -2 -99 -39z"></path>
</g>
</svg>
</svg>