<svg xmlns="http://www.w3.org/2000/svg" width="691" height="691" viewBox="0 0 691 691">
  <defs>
    <linearGradient id="bg_grad" x1="0" y1="1" x2="0" y2="0" gradientUnits="objectBoundingBox">
      <stop offset="0" stop-color="#0a1929"/>
      <stop offset="0.5" stop-color="#1e3a5f"/>
      <stop offset="1" stop-color="#2563eb"/>
    </linearGradient>
  </defs>
  <rect width="691" height="691" rx="161.953" fill="url(#bg_grad)"/>
  <g transform="translate(-40, -30) scale(3.5)">
    <path d="m169 84.21c-1-1.48-2.95-0.55-3.71-0.4-7.87 1.62-14.13-2.58-15.8-6.78-3.52-9.28-10.11-14.24-20.14-14.24-12.25 0-19.28 10.39-19.28 20.83 0 5.19 1.67 9.8 4.65 15.41 2.2 4.2 2.13 7.12 7.48 8.63 8.07 2.33 16.24 2.76 21.72 0.25-3.16-2.99-2.79-12.58 3.54-13.11 7.44-0.65 12.26-0.59 18.24-5.02 2.09-1.62 4.42-3.72 3.3-5.57zm-30.76-2.6c-2.51 0-3.2-1.64-3.2-3.16 0-2.02 1.46-2.98 2.88-2.98 1.9 0 3.2 1.14 3.2 2.82s-0.99 3.32-2.88 3.32z" fill="#FFFFFF" stroke="#FFFFFF" stroke-miterlimit="10" stroke-width=".5"/>
    <path d="m153 122.8c-4.8-1.51-6.54-2.76-7.87-6.4-1.85 2.59-5.39 7.37-8.52 8.02-1.42-2.92 0.32-8.42 1.94-10.05-4.8-0.28-11.27-2.44-20.65-0.6-6.5 1.3-13 5.63-20.82 5.74-5.63 0.08-8.51 4.19-15.68 3.23-6.26-0.86-10.32-5.65-12.32-6.74-2.95-0.96-4.7 7.11-2.5 16 4.5 18.76 20.31 29.99 45.9 29.99 11.62 0 24.7-2.26 30.93-7.4 11.22-9.28 12.37-16.46 9.59-31.79z" fill="#FFFFFF" stroke="#FFFFFF" stroke-miterlimit="10" stroke-width=".5"/>
    <path d="m145.4 111 1.35 0.7-0.42 0.6-1.18-0.8 0.25-0.5z" fill="#FFFFFF" stroke="#FFFFFF" stroke-miterlimit="10" stroke-width=".5"/>
    <path d="m74.12 86.06c0 6.32-2.95 9.57-12.04 11.09s-13.42 9.88-14.41 15.48c5.07-2.52 9.34-4.32 19.28-2.8 7.83 1.24 15.53 7.33 25.34 7.33 8.97 0 14.77-5.33 25.37-8.12-2.65-1.85-3.03-5.88-4.55-6.6-13.01-0.52-23.28-16.01-38.99-16.38z" fill="#FFFFFF" stroke="#FFFFFF" stroke-miterlimit="10" stroke-width=".5"/>
  </g>
</svg>
